# xmcd
#
# Track frame offsets: 
#        150
#        21096
#        35174
#        42709
#        55679
#        71220
#        81858
#        92520
#        108284
#        122402
#        136041
#        144965
#        157196
#        171262
#
# Disc length: 2428 seconds
#
# Revision: 0
# Processed by: cddbd v1.5.2PL0 Copyright (c) Steve Scherf et al.
# Submitted via: ExactAudioCopy v1.0b3
#
DISCID=bd097a0e
DTITLE=Maverick - Instrumental - Die Hits von Johnny Cash Volume 1
DYEAR=2013
DGENRE=Country
TTITLE0=Ghostriders In The Sky
TTITLE1=I Still Miss Someone
TTITLE2=Wreck Of The Old '97
TTITLE3=Ring Of Fire
TTITLE4=Orange Blossom Special
TTITLE5=Wildwood Flower
TTITLE6=Daddy Sang Bass
TTITLE7=Long Black Veil
TTITLE8=San Quentin
TTITLE9=Tennessee Flat Top Box
TTITLE10=Five Feet High And Rising
TTITLE11=Big River
TTITLE12=Folsom Prison Blues
TTITLE13=I Walk The Line
EXTD=
EXTT0=
EXTT1=
EXTT2=
EXTT3=
EXTT4=
EXTT5=
EXTT6=
EXTT7=
EXTT8=
EXTT9=
EXTT10=
EXTT11=
EXTT12=
EXTT13=
PLAYORDER=
